<mxfile host="app.diagrams.net" agent="Mozilla/5.0 (Windows NT 10.0; Win64; x64) AppleWebKit/537.36 (KHTML, like Gecko) Chrome/132.0.0.0 Safari/537.36" version="26.0.10">
  <diagram name="Page-1" id="5Gqgqp_SR6Bb7fvEw84s">
    <mxGraphModel dx="1147" dy="618" grid="1" gridSize="10" guides="1" tooltips="1" connect="1" arrows="1" fold="1" page="0" pageScale="1" pageWidth="827" pageHeight="1169" background="none" math="0" shadow="0">
      <root>
        <mxCell id="0" />
        <mxCell id="1" parent="0" />
        <mxCell id="xFmJfjs5TsLnnlZAQCEA-14" value="" style="edgeStyle=orthogonalEdgeStyle;rounded=0;orthogonalLoop=1;jettySize=auto;html=1;" edge="1" parent="1" source="xFmJfjs5TsLnnlZAQCEA-10" target="xFmJfjs5TsLnnlZAQCEA-11">
          <mxGeometry relative="1" as="geometry" />
        </mxCell>
        <mxCell id="xFmJfjs5TsLnnlZAQCEA-10" value="" style="shape=ellipse;html=1;fillColor=strokeColor;strokeWidth=2;verticalLabelPosition=bottom;verticalAlignment=top;perimeter=ellipsePerimeter;" vertex="1" parent="1">
          <mxGeometry x="420" y="20" width="40" height="40" as="geometry" />
        </mxCell>
        <mxCell id="xFmJfjs5TsLnnlZAQCEA-13" value="" style="edgeStyle=orthogonalEdgeStyle;rounded=0;orthogonalLoop=1;jettySize=auto;html=1;" edge="1" parent="1" source="xFmJfjs5TsLnnlZAQCEA-11" target="xFmJfjs5TsLnnlZAQCEA-12">
          <mxGeometry relative="1" as="geometry" />
        </mxCell>
        <mxCell id="xFmJfjs5TsLnnlZAQCEA-11" value="select pizza size" style="rounded=1;whiteSpace=wrap;html=1;" vertex="1" parent="1">
          <mxGeometry x="380" y="130" width="120" height="60" as="geometry" />
        </mxCell>
        <mxCell id="xFmJfjs5TsLnnlZAQCEA-16" value="" style="edgeStyle=orthogonalEdgeStyle;rounded=0;orthogonalLoop=1;jettySize=auto;html=1;" edge="1" parent="1" source="xFmJfjs5TsLnnlZAQCEA-12" target="xFmJfjs5TsLnnlZAQCEA-15">
          <mxGeometry relative="1" as="geometry" />
        </mxCell>
        <mxCell id="xFmJfjs5TsLnnlZAQCEA-12" value="choose toppings" style="rounded=1;whiteSpace=wrap;html=1;" vertex="1" parent="1">
          <mxGeometry x="380" y="260" width="120" height="60" as="geometry" />
        </mxCell>
        <mxCell id="xFmJfjs5TsLnnlZAQCEA-24" value="" style="edgeStyle=orthogonalEdgeStyle;rounded=0;orthogonalLoop=1;jettySize=auto;html=1;" edge="1" parent="1" source="xFmJfjs5TsLnnlZAQCEA-15" target="xFmJfjs5TsLnnlZAQCEA-23">
          <mxGeometry relative="1" as="geometry" />
        </mxCell>
        <mxCell id="xFmJfjs5TsLnnlZAQCEA-15" value="add to cart" style="rounded=1;whiteSpace=wrap;html=1;" vertex="1" parent="1">
          <mxGeometry x="380" y="400" width="120" height="60" as="geometry" />
        </mxCell>
        <mxCell id="xFmJfjs5TsLnnlZAQCEA-33" style="edgeStyle=orthogonalEdgeStyle;rounded=0;orthogonalLoop=1;jettySize=auto;html=1;entryX=0.5;entryY=0;entryDx=0;entryDy=0;" edge="1" parent="1" source="xFmJfjs5TsLnnlZAQCEA-17" target="xFmJfjs5TsLnnlZAQCEA-19">
          <mxGeometry relative="1" as="geometry" />
        </mxCell>
        <mxCell id="xFmJfjs5TsLnnlZAQCEA-17" value="delivery details" style="rounded=1;whiteSpace=wrap;html=1;" vertex="1" parent="1">
          <mxGeometry x="380" y="800" width="120" height="60" as="geometry" />
        </mxCell>
        <mxCell id="xFmJfjs5TsLnnlZAQCEA-19" value="payment" style="rounded=1;whiteSpace=wrap;html=1;" vertex="1" parent="1">
          <mxGeometry x="380" y="930" width="120" height="60" as="geometry" />
        </mxCell>
        <mxCell id="xFmJfjs5TsLnnlZAQCEA-21" value="" style="points=[[0.145,0.145,0],[0.5,0,0],[0.855,0.145,0],[1,0.5,0],[0.855,0.855,0],[0.5,1,0],[0.145,0.855,0],[0,0.5,0]];shape=mxgraph.bpmn.event;html=1;verticalLabelPosition=bottom;labelBackgroundColor=#ffffff;verticalAlign=top;align=center;perimeter=ellipsePerimeter;outlineConnect=0;aspect=fixed;outline=end;symbol=terminate;" vertex="1" parent="1">
          <mxGeometry x="415" y="1100" width="50" height="50" as="geometry" />
        </mxCell>
        <mxCell id="xFmJfjs5TsLnnlZAQCEA-26" value="" style="edgeStyle=orthogonalEdgeStyle;rounded=0;orthogonalLoop=1;jettySize=auto;html=1;" edge="1" parent="1" source="xFmJfjs5TsLnnlZAQCEA-23" target="xFmJfjs5TsLnnlZAQCEA-25">
          <mxGeometry relative="1" as="geometry" />
        </mxCell>
        <mxCell id="xFmJfjs5TsLnnlZAQCEA-28" value="" style="edgeStyle=orthogonalEdgeStyle;rounded=0;orthogonalLoop=1;jettySize=auto;html=1;" edge="1" parent="1" source="xFmJfjs5TsLnnlZAQCEA-23" target="xFmJfjs5TsLnnlZAQCEA-27">
          <mxGeometry relative="1" as="geometry" />
        </mxCell>
        <mxCell id="xFmJfjs5TsLnnlZAQCEA-23" value="" style="rhombus;whiteSpace=wrap;html=1;rounded=1;" vertex="1" parent="1">
          <mxGeometry x="400" y="530" width="80" height="80" as="geometry" />
        </mxCell>
        <mxCell id="xFmJfjs5TsLnnlZAQCEA-30" value="" style="edgeStyle=orthogonalEdgeStyle;rounded=0;orthogonalLoop=1;jettySize=auto;html=1;" edge="1" parent="1" source="xFmJfjs5TsLnnlZAQCEA-25" target="xFmJfjs5TsLnnlZAQCEA-29">
          <mxGeometry relative="1" as="geometry" />
        </mxCell>
        <mxCell id="xFmJfjs5TsLnnlZAQCEA-25" value="delivery" style="whiteSpace=wrap;html=1;rounded=1;" vertex="1" parent="1">
          <mxGeometry x="220" y="540" width="120" height="60" as="geometry" />
        </mxCell>
        <mxCell id="xFmJfjs5TsLnnlZAQCEA-27" value="pickup" style="whiteSpace=wrap;html=1;rounded=1;" vertex="1" parent="1">
          <mxGeometry x="540" y="540" width="120" height="60" as="geometry" />
        </mxCell>
        <mxCell id="xFmJfjs5TsLnnlZAQCEA-31" value="" style="edgeStyle=orthogonalEdgeStyle;rounded=0;orthogonalLoop=1;jettySize=auto;html=1;" edge="1" parent="1" source="xFmJfjs5TsLnnlZAQCEA-29" target="xFmJfjs5TsLnnlZAQCEA-17">
          <mxGeometry relative="1" as="geometry" />
        </mxCell>
        <mxCell id="xFmJfjs5TsLnnlZAQCEA-29" value="calculate total" style="whiteSpace=wrap;html=1;rounded=1;" vertex="1" parent="1">
          <mxGeometry x="220" y="680" width="120" height="60" as="geometry" />
        </mxCell>
        <mxCell id="xFmJfjs5TsLnnlZAQCEA-34" style="edgeStyle=orthogonalEdgeStyle;rounded=0;orthogonalLoop=1;jettySize=auto;html=1;entryX=1;entryY=0.5;entryDx=0;entryDy=0;entryPerimeter=0;exitX=0.5;exitY=1;exitDx=0;exitDy=0;" edge="1" parent="1" source="xFmJfjs5TsLnnlZAQCEA-27" target="xFmJfjs5TsLnnlZAQCEA-21">
          <mxGeometry relative="1" as="geometry" />
        </mxCell>
        <mxCell id="xFmJfjs5TsLnnlZAQCEA-37" style="edgeStyle=orthogonalEdgeStyle;rounded=0;orthogonalLoop=1;jettySize=auto;html=1;entryX=0.5;entryY=0;entryDx=0;entryDy=0;entryPerimeter=0;" edge="1" parent="1" source="xFmJfjs5TsLnnlZAQCEA-19" target="xFmJfjs5TsLnnlZAQCEA-21">
          <mxGeometry relative="1" as="geometry">
            <mxPoint x="440" y="1040" as="targetPoint" />
          </mxGeometry>
        </mxCell>
      </root>
    </mxGraphModel>
  </diagram>
</mxfile>
